<svg xmlns="http://www.w3.org/2000/svg" xmlns:xlink="http://www.w3.org/1999/xlink" width="1120pt" height="2323pt" viewBox="0.00 0.00 1120.00 2323.00">
<g id="graph0" class="graph" transform="scale(1 1) rotate(0) translate(4 2318.51)">
<title>LevitacionMagnetica</title>
<polygon fill="white" stroke="none" points="-4,4 -4,-2318.51 1115.91,-2318.51 1115.91,4 -4,4"/>
<g id="clust1" class="cluster">
<title>cluster_arduino</title>
<polygon fill="none" stroke="blue" points="21.97,-1656.02 21.97,-2237.02 112.24,-2237.02 112.24,-1656.02 21.97,-1656.02"/>
<text xml:space="preserve" text-anchor="middle" x="67.11" y="-2220.42" font-family="Times,serif" font-size="14.00">Arduino Uno</text>
</g>
<g id="clust2" class="cluster">
<title>cluster_hall</title>
<polygon fill="none" stroke="green" points="250.14,-1914.02 250.14,-2207.02 385.13,-2207.02 385.13,-1914.02 250.14,-1914.02"/>
<text xml:space="preserve" text-anchor="middle" x="317.64" y="-2190.42" font-family="Times,serif" font-size="14.00">Sensores Hall A1324</text>
</g>
<g id="clust3" class="cluster">
<title>cluster_pca</title>
<polygon fill="none" stroke="black" points="263.42,-1106.02 263.42,-1687.02 611.4,-1687.02 611.4,-1106.02 263.42,-1106.02"/>
<text xml:space="preserve" text-anchor="middle" x="437.41" y="-1670.42" font-family="Times,serif" font-size="14.00">PCA9685</text>
</g>
<g id="clust4" class="cluster">
<title>cluster_mosfet</title>
<polygon fill="none" stroke="red" points="735.55,-1062.02 735.55,-1643.02 870.95,-1643.02 870.95,-1062.02 735.55,-1062.02"/>
<text xml:space="preserve" text-anchor="middle" x="803.25" y="-1626.42" font-family="Times,serif" font-size="14.00">MOSFETs IRLZ44N</text>
</g>
<g id="clust5" class="cluster">
<title>cluster_bobinas</title>
<polygon fill="none" stroke="black" points="506.7,-426.02 506.7,-1007.02 646.09,-1007.02 646.09,-426.02 506.7,-426.02"/>
<text xml:space="preserve" text-anchor="middle" x="576.4" y="-990.42" font-family="Times,serif" font-size="14.00">Electroimanes</text>
</g>
<g id="clust6" class="cluster">
<title>cluster_diodos</title>
<polygon fill="none" stroke="black" points="240.81,-323.02 240.81,-904.02 394.47,-904.02 394.47,-323.02 240.81,-323.02"/>
<text xml:space="preserve" text-anchor="middle" x="317.64" y="-887.42" font-family="Times,serif" font-size="14.00">Diodos Flyback 1N5408</text>
</g>
<!-- A0 -->
<g id="node1" class="node">
<title>A0</title>
<path fill="none" stroke="black" d="M81.61,-2204.02C81.61,-2204.02 51.61,-2204.02 51.61,-2204.02 45.61,-2204.02 39.61,-2198.02 39.61,-2192.02 39.61,-2192.02 39.61,-2180.02 39.61,-2180.02 39.61,-2174.02 45.61,-2168.02 51.61,-2168.02 51.61,-2168.02 81.61,-2168.02 81.61,-2168.02 87.61,-2168.02 93.61,-2174.02 93.61,-2180.02 93.61,-2180.02 93.61,-2192.02 93.61,-2192.02 93.61,-2198.02 87.61,-2204.02 81.61,-2204.02"/>
<text xml:space="preserve" text-anchor="middle" x="66.61" y="-2181.82" font-family="Arial" font-size="14.00">A0</text>
</g>
<!-- H1 -->
<g id="node9" class="node">
<title>H1</title>
<path fill="none" stroke="black" d="M334.93,-2174.02C334.93,-2174.02 299.35,-2174.02 299.35,-2174.02 293.35,-2174.02 287.35,-2168.02 287.35,-2162.02 287.35,-2162.02 287.35,-2150.02 287.35,-2150.02 287.35,-2144.02 293.35,-2138.02 299.35,-2138.02 299.35,-2138.02 334.93,-2138.02 334.93,-2138.02 340.93,-2138.02 346.93,-2144.02 346.93,-2150.02 346.93,-2150.02 346.93,-2162.02 346.93,-2162.02 346.93,-2168.02 340.93,-2174.02 334.93,-2174.02"/>
<text xml:space="preserve" text-anchor="middle" x="317.14" y="-2151.82" font-family="Arial" font-size="14.00">Hall #1</text>
</g>
<!-- A0&#45;&gt;H1 -->
<g id="edge1" class="edge">
<title>A0-&gt;H1</title>
<path fill="none" stroke="black" d="M78.24,-2204.39C101.15,-2241.45 157.59,-2319.41 212.81,-2292.02 257.67,-2269.76 288.32,-2217.67 303.97,-2184.8"/>
<polygon fill="black" stroke="black" points="307.1,-2186.39 308.08,-2175.84 300.73,-2183.48 307.1,-2186.39"/>
<text xml:space="preserve" text-anchor="middle" x="191.01" y="-2301.91" font-family="Arial" font-size="14.00">Analog</text>
</g>
<!-- A1 -->
<g id="node2" class="node">
<title>A1</title>
<path fill="none" stroke="black" d="M81.61,-2132.02C81.61,-2132.02 51.61,-2132.02 51.61,-2132.02 45.61,-2132.02 39.61,-2126.02 39.61,-2120.02 39.61,-2120.02 39.61,-2108.02 39.61,-2108.02 39.61,-2102.02 45.61,-2096.02 51.61,-2096.02 51.61,-2096.02 81.61,-2096.02 81.61,-2096.02 87.61,-2096.02 93.61,-2102.02 93.61,-2108.02 93.61,-2108.02 93.61,-2120.02 93.61,-2120.02 93.61,-2126.02 87.61,-2132.02 81.61,-2132.02"/>
<text xml:space="preserve" text-anchor="middle" x="66.61" y="-2109.82" font-family="Arial" font-size="14.00">A1</text>
</g>
<!-- H2 -->
<g id="node10" class="node">
<title>H2</title>
<path fill="none" stroke="black" d="M334.93,-2102.02C334.93,-2102.02 299.35,-2102.02 299.35,-2102.02 293.35,-2102.02 287.35,-2096.02 287.35,-2090.02 287.35,-2090.02 287.35,-2078.02 287.35,-2078.02 287.35,-2072.02 293.35,-2066.02 299.35,-2066.02 299.35,-2066.02 334.93,-2066.02 334.93,-2066.02 340.93,-2066.02 346.93,-2072.02 346.93,-2078.02 346.93,-2078.02 346.93,-2090.02 346.93,-2090.02 346.93,-2096.02 340.93,-2102.02 334.93,-2102.02"/>
<text xml:space="preserve" text-anchor="middle" x="317.14" y="-2079.82" font-family="Arial" font-size="14.00">Hall #2</text>
</g>
<!-- A1&#45;&gt;H2 -->
<g id="edge2" class="edge">
<title>A1-&gt;H2</title>
<path fill="none" stroke="black" d="M93.82,-2125.76C106.38,-2132.03 121.25,-2140.43 133.21,-2150.02 152.13,-2165.19 147.12,-2181.02 169.21,-2191.02 186.86,-2199.01 196.79,-2201.92 212.81,-2191.02 240.85,-2171.93 217.68,-2144.83 240.81,-2120.02 250.46,-2109.67 263.71,-2101.97 276.41,-2096.42"/>
<polygon fill="black" stroke="black" points="277.46,-2099.76 285.45,-2092.8 274.86,-2093.26 277.46,-2099.76"/>
<text xml:space="preserve" text-anchor="middle" x="191.01" y="-2202.35" font-family="Arial" font-size="14.00">Analog</text>
</g>
<!-- A2 -->
<g id="node3" class="node">
<title>A2</title>
<path fill="none" stroke="black" d="M81.61,-2060.02C81.61,-2060.02 51.61,-2060.02 51.61,-2060.02 45.61,-2060.02 39.61,-2054.02 39.61,-2048.02 39.61,-2048.02 39.61,-2036.02 39.61,-2036.02 39.61,-2030.02 45.61,-2024.02 51.61,-2024.02 51.61,-2024.02 81.61,-2024.02 81.61,-2024.02 87.61,-2024.02 93.61,-2030.02 93.61,-2036.02 93.61,-2036.02 93.61,-2048.02 93.61,-2048.02 93.61,-2054.02 87.61,-2060.02 81.61,-2060.02"/>
<text xml:space="preserve" text-anchor="middle" x="66.61" y="-2037.82" font-family="Arial" font-size="14.00">A2</text>
</g>
<!-- H3 -->
<g id="node11" class="node">
<title>H3</title>
<path fill="none" stroke="black" d="M334.93,-2030.02C334.93,-2030.02 299.35,-2030.02 299.35,-2030.02 293.35,-2030.02 287.35,-2024.02 287.35,-2018.02 287.35,-2018.02 287.35,-2006.02 287.35,-2006.02 287.35,-2000.02 293.35,-1994.02 299.35,-1994.02 299.35,-1994.02 334.93,-1994.02 334.93,-1994.02 340.93,-1994.02 346.93,-2000.02 346.93,-2006.02 346.93,-2006.02 346.93,-2018.02 346.93,-2018.02 346.93,-2024.02 340.93,-2030.02 334.93,-2030.02"/>
<text xml:space="preserve" text-anchor="middle" x="317.14" y="-2007.82" font-family="Arial" font-size="14.00">Hall #3</text>
</g>
<!-- A2&#45;&gt;H3 -->
<g id="edge3" class="edge">
<title>A2-&gt;H3</title>
<path fill="none" stroke="black" d="M94.08,-2048.88C123.37,-2055.43 171.85,-2063.2 212.81,-2055.02 234.89,-2050.61 258.16,-2041.38 277.01,-2032.6"/>
<polygon fill="black" stroke="black" points="278.42,-2035.8 285.91,-2028.31 275.38,-2029.49 278.42,-2035.8"/>
<text xml:space="preserve" text-anchor="middle" x="191.01" y="-2062.74" font-family="Arial" font-size="14.00">Analog</text>
</g>
<!-- A3 -->
<g id="node4" class="node">
<title>A3</title>
<path fill="none" stroke="black" d="M81.61,-1844.02C81.61,-1844.02 51.61,-1844.02 51.61,-1844.02 45.61,-1844.02 39.61,-1838.02 39.61,-1832.02 39.61,-1832.02 39.61,-1820.02 39.61,-1820.02 39.61,-1814.02 45.61,-1808.02 51.61,-1808.02 51.61,-1808.02 81.61,-1808.02 81.61,-1808.02 87.61,-1808.02 93.61,-1814.02 93.61,-1820.02 93.61,-1820.02 93.61,-1832.02 93.61,-1832.02 93.61,-1838.02 87.61,-1844.02 81.61,-1844.02"/>
<text xml:space="preserve" text-anchor="middle" x="66.61" y="-1821.82" font-family="Arial" font-size="14.00">A3</text>
</g>
<!-- H4 -->
<g id="node12" class="node">
<title>H4</title>
<path fill="none" stroke="black" d="M334.93,-1958.02C334.93,-1958.02 299.35,-1958.02 299.35,-1958.02 293.35,-1958.02 287.35,-1952.02 287.35,-1946.02 287.35,-1946.02 287.35,-1934.02 287.35,-1934.02 287.35,-1928.02 293.35,-1922.02 299.35,-1922.02 299.35,-1922.02 334.93,-1922.02 334.93,-1922.02 340.93,-1922.02 346.93,-1928.02 346.93,-1934.02 346.93,-1934.02 346.93,-1946.02 346.93,-1946.02 346.93,-1952.02 340.93,-1958.02 334.93,-1958.02"/>
<text xml:space="preserve" text-anchor="middle" x="317.14" y="-1935.82" font-family="Arial" font-size="14.00">Hall #4</text>
</g>
<!-- A3&#45;&gt;H4 -->
<g id="edge4" class="edge">
<title>A3-&gt;H4</title>
<path fill="none" stroke="black" d="M93.95,-1813.21C124.2,-1800.44 174.55,-1785.26 212.81,-1804.22 257.64,-1826.44 288.29,-1878.46 303.96,-1911.28"/>
<polygon fill="black" stroke="black" points="300.72,-1912.6 308.07,-1920.22 307.08,-1909.68 300.72,-1912.6"/>
<text xml:space="preserve" text-anchor="middle" x="191.01" y="-1808.42" font-family="Arial" font-size="14.00">Analog</text>
</g>
<!-- SDA -->
<g id="node5" class="node">
<title>SDA</title>
<path fill="none" stroke="black" d="M91.4,-1772.02C91.4,-1772.02 41.82,-1772.02 41.82,-1772.02 35.82,-1772.02 29.82,-1766.02 29.82,-1760.02 29.82,-1760.02 29.82,-1748.02 29.82,-1748.02 29.82,-1742.02 35.82,-1736.02 41.82,-1736.02 41.82,-1736.02 91.4,-1736.02 91.4,-1736.02 97.4,-1736.02 103.4,-1742.02 103.4,-1748.02 103.4,-1748.02 103.4,-1760.02 103.4,-1760.02 103.4,-1766.02 97.4,-1772.02 91.4,-1772.02"/>
<text xml:space="preserve" text-anchor="middle" x="66.61" y="-1749.82" font-family="Arial" font-size="14.00">A4 / SDA</text>
</g>
<!-- PCA -->
<g id="node13" class="node">
<title>PCA</title>
<path fill="none" stroke="black" d="M350.85,-1518.02C350.85,-1518.02 283.42,-1518.02 283.42,-1518.02 277.42,-1518.02 271.42,-1512.02 271.42,-1506.02 271.42,-1506.02 271.42,-1494.02 271.42,-1494.02 271.42,-1488.02 277.42,-1482.02 283.42,-1482.02 283.42,-1482.02 350.85,-1482.02 350.85,-1482.02 356.85,-1482.02 362.85,-1488.02 362.85,-1494.02 362.85,-1494.02 362.85,-1506.02 362.85,-1506.02 362.85,-1512.02 356.85,-1518.02 350.85,-1518.02"/>
<text xml:space="preserve" text-anchor="middle" x="317.14" y="-1495.82" font-family="Arial" font-size="14.00">PWM Driver</text>
</g>
<!-- SDA&#45;&gt;PCA -->
<g id="edge13" class="edge">
<title>SDA-&gt;PCA</title>
<path fill="none" stroke="black" d="M103.7,-1740.22C114.39,-1734.68 125.33,-1727.35 133.21,-1718.02 164.72,-1680.72 140.76,-1653.9 169.21,-1614.22 196.51,-1576.15 240.02,-1544.57 272.62,-1524.34"/>
<polygon fill="black" stroke="black" points="274.33,-1527.39 281.06,-1519.21 270.7,-1521.41 274.33,-1527.39"/>
<text xml:space="preserve" text-anchor="middle" x="191.01" y="-1618.42" font-family="Arial" font-size="14.00">I2C</text>
</g>
<!-- SCL -->
<g id="node6" class="node">
<title>SCL</title>
<path fill="none" stroke="black" d="M90.62,-1700.02C90.62,-1700.02 42.59,-1700.02 42.59,-1700.02 36.59,-1700.02 30.59,-1694.02 30.59,-1688.02 30.59,-1688.02 30.59,-1676.02 30.59,-1676.02 30.59,-1670.02 36.59,-1664.02 42.59,-1664.02 42.59,-1664.02 90.62,-1664.02 90.62,-1664.02 96.62,-1664.02 102.62,-1670.02 102.62,-1676.02 102.62,-1676.02 102.62,-1688.02 102.62,-1688.02 102.62,-1694.02 96.62,-1700.02 90.62,-1700.02"/>
<text xml:space="preserve" text-anchor="middle" x="66.61" y="-1677.82" font-family="Arial" font-size="14.00">A5 / SCL</text>
</g>
<!-- SCL&#45;&gt;PCA -->
<g id="edge14" class="edge">
<title>SCL-&gt;PCA</title>
<path fill="none" stroke="black" d="M75.3,-1663.89C89.3,-1633.14 121.95,-1570.91 169.21,-1538.22 195.81,-1519.82 230.67,-1510.29 259.76,-1505.34"/>
<polygon fill="black" stroke="black" points="260.16,-1508.82 269.51,-1503.84 259.09,-1501.9 260.16,-1508.82"/>
<text xml:space="preserve" text-anchor="middle" x="191.01" y="-1542.42" font-family="Arial" font-size="14.00">I2C</text>
</g>
<!-- V5A -->
<g id="node7" class="node">
<title>V5A</title>
<path fill="none" stroke="black" d="M81.61,-1988.02C81.61,-1988.02 51.61,-1988.02 51.61,-1988.02 45.61,-1988.02 39.61,-1982.02 39.61,-1976.02 39.61,-1976.02 39.61,-1964.02 39.61,-1964.02 39.61,-1958.02 45.61,-1952.02 51.61,-1952.02 51.61,-1952.02 81.61,-1952.02 81.61,-1952.02 87.61,-1952.02 93.61,-1958.02 93.61,-1964.02 93.61,-1964.02 93.61,-1976.02 93.61,-1976.02 93.61,-1982.02 87.61,-1988.02 81.61,-1988.02"/>
<text xml:space="preserve" text-anchor="middle" x="66.61" y="-1965.82" font-family="Arial" font-size="14.00">5V</text>
</g>
<!-- V5A&#45;&gt;H1 -->
<g id="edge5" class="edge">
<title>V5A-&gt;H1</title>
<path fill="none" stroke="black" d="M93.86,-1978.11C107.71,-1983.73 123.75,-1992.66 133.21,-2006.02 189.97,-2086.15 94.33,-2160.49 169.21,-2224.02 206.59,-2255.73 261.24,-2212.67 292.27,-2182"/>
<polygon fill="black" stroke="black" points="294.42,-2184.8 298.93,-2175.22 289.43,-2179.9 294.42,-2184.8"/>
</g>
<!-- V5A&#45;&gt;H2 -->
<g id="edge6" class="edge">
<title>V5A-&gt;H2</title>
<path fill="none" stroke="black" d="M94.08,-1984.25C114.43,-1995.02 143.35,-2009.96 169.21,-2022.02 205.08,-2038.74 246.7,-2056.12 276.47,-2068.21"/>
<polygon fill="black" stroke="black" points="274.88,-2071.34 285.46,-2071.84 277.5,-2064.85 274.88,-2071.34"/>
</g>
<!-- V5A&#45;&gt;H3 -->
<g id="edge7" class="edge">
<title>V5A-&gt;H3</title>
<path fill="none" stroke="black" d="M93.84,-1975.91C114.3,-1980.39 143.48,-1986.53 169.21,-1991.02 205.18,-1997.3 246.34,-2003.06 275.93,-2006.95"/>
<polygon fill="black" stroke="black" points="275.19,-2010.39 285.56,-2008.21 276.09,-2003.45 275.19,-2010.39"/>
</g>
<!-- V5A&#45;&gt;H4 -->
<g id="edge8" class="edge">
<title>V5A-&gt;H4</title>
<path fill="none" stroke="black" d="M93.94,-1969.48C123.11,-1968.63 171.49,-1966.47 212.81,-1961.02 233.8,-1958.25 256.91,-1953.7 275.94,-1949.54"/>
<polygon fill="black" stroke="black" points="276.45,-1953.01 285.45,-1947.41 274.92,-1946.18 276.45,-1953.01"/>
</g>
<!-- V5A&#45;&gt;PCA -->
<g id="edge15" class="edge">
<title>V5A-&gt;PCA</title>
<path fill="none" stroke="black" d="M93.79,-1958.78C106.48,-1952.58 121.49,-1944.09 133.21,-1934.02 177.36,-1896.09 186.01,-1881.69 212.81,-1830.02 266.71,-1726.06 298.46,-1588.93 310.52,-1529.54"/>
<polygon fill="black" stroke="black" points="313.92,-1530.38 312.44,-1519.89 307.06,-1529.02 313.92,-1530.38"/>
</g>
<!-- GNDA -->
<g id="node8" class="node">
<title>GNDA</title>
<path fill="none" stroke="black" d="M81.61,-1916.02C81.61,-1916.02 51.61,-1916.02 51.61,-1916.02 45.61,-1916.02 39.61,-1910.02 39.61,-1904.02 39.61,-1904.02 39.61,-1892.02 39.61,-1892.02 39.61,-1886.02 45.61,-1880.02 51.61,-1880.02 51.61,-1880.02 81.61,-1880.02 81.61,-1880.02 87.61,-1880.02 93.61,-1886.02 93.61,-1892.02 93.61,-1892.02 93.61,-1904.02 93.61,-1904.02 93.61,-1910.02 87.61,-1916.02 81.61,-1916.02"/>
<text xml:space="preserve" text-anchor="middle" x="66.61" y="-1893.82" font-family="Arial" font-size="14.00">GND</text>
</g>
<!-- GNDA&#45;&gt;H1 -->
<g id="edge9" class="edge">
<title>GNDA-&gt;H1</title>
<path fill="none" stroke="black" d="M93.94,-1907.65C107.14,-1913.58 122.54,-1922.3 133.21,-1934.02 160.3,-1963.74 149.64,-1981.89 169.21,-2017.02 196.35,-2065.72 198.33,-2083.91 240.81,-2120.02 251.23,-2128.88 264.2,-2136.1 276.43,-2141.68"/>
<polygon fill="black" stroke="black" points="274.94,-2144.85 285.51,-2145.57 277.69,-2138.42 274.94,-2144.85"/>
</g>
<!-- GNDA&#45;&gt;H2 -->
<g id="edge10" class="edge">
<title>GNDA-&gt;H2</title>
<path fill="none" stroke="black" d="M93.86,-1910.29C106.29,-1916.62 121.04,-1924.92 133.21,-1934.02 173.14,-1963.85 179.5,-1975.94 212.81,-2013.02 226.12,-2027.84 225.2,-2035.63 240.81,-2048.02 251.52,-2056.52 264.57,-2063.65 276.78,-2069.26"/>
<polygon fill="black" stroke="black" points="275.26,-2072.41 285.82,-2073.19 278.05,-2065.99 275.26,-2072.41"/>
</g>
<!-- GNDA&#45;&gt;H3 -->
<g id="edge11" class="edge">
<title>GNDA-&gt;H3</title>
<path fill="none" stroke="black" d="M94.06,-1883.94C125.57,-1869.34 178.27,-1851.97 212.81,-1878.02 248.97,-1905.3 211.57,-1941.42 240.81,-1976.02 250.09,-1987 263.49,-1994.88 276.43,-2000.41"/>
<polygon fill="black" stroke="black" points="275.08,-2003.64 285.67,-2003.97 277.6,-1997.11 275.08,-2003.64"/>
</g>
<!-- GNDA&#45;&gt;H4 -->
<g id="edge12" class="edge">
<title>GNDA-&gt;H4</title>
<path fill="none" stroke="black" d="M93.96,-1884.65C106.14,-1878.2 120.66,-1870.12 133.21,-1862.02 150.02,-1851.18 150.24,-1841.34 169.21,-1835.02 187.59,-1828.89 194.94,-1827.53 212.81,-1835.02 250.04,-1850.62 280.64,-1886.89 298.63,-1912.42"/>
<polygon fill="black" stroke="black" points="295.52,-1914.07 304.05,-1920.36 301.3,-1910.13 295.52,-1914.07"/>
</g>
<!-- GNDA&#45;&gt;PCA -->
<g id="edge16" class="edge">
<title>GNDA-&gt;PCA</title>
<path fill="none" stroke="black" d="M94.01,-1889.67C107.73,-1884 123.6,-1875.11 133.21,-1862.02 181.26,-1796.63 132.23,-1755.25 169.21,-1683.02 182.2,-1657.66 194.48,-1657.83 212.81,-1636.02 243.35,-1599.67 276.11,-1555.58 296.36,-1527.66"/>
<polygon fill="black" stroke="black" points="299.08,-1529.88 302.1,-1519.73 293.4,-1525.78 299.08,-1529.88"/>
</g>
<!-- GND12 -->
<g id="node47" class="node">
<title>GND12</title>
<ellipse fill="none" stroke="black" cx="1045.61" cy="-1376.02" rx="66.3" ry="18"/>
<text xml:space="preserve" text-anchor="middle" x="1045.61" y="-1371.82" font-family="Arial" font-size="14.00">GND Común</text>
</g>
<!-- GNDA&#45;&gt;GND12 -->
<g id="edge73" class="edge">
<title>GNDA-&gt;GND12</title>
<path fill="none" stroke="black" d="M94.1,-1888.09C107.19,-1882.13 122.43,-1873.46 133.21,-1862.02 158.84,-1834.82 139.65,-1808.89 169.21,-1786.02 420.33,-1591.71 600.97,-1819.14 870.95,-1652.02 965.26,-1593.64 1016.94,-1462.94 1035.99,-1404.83"/>
<polygon fill="black" stroke="black" points="1039.21,-1406.25 1038.91,-1395.66 1032.54,-1404.12 1039.21,-1406.25"/>
<text xml:space="preserve" text-anchor="middle" x="576.4" y="-1722.21" font-family="Arial" font-size="14.00">GND común</text>
</g>
<!-- CH0 -->
<g id="node14" class="node">
<title>CH0</title>
<path fill="none" stroke="black" d="M591.4,-1366.02C591.4,-1366.02 561.4,-1366.02 561.4,-1366.02 555.4,-1366.02 549.4,-1360.02 549.4,-1354.02 549.4,-1354.02 549.4,-1342.02 549.4,-1342.02 549.4,-1336.02 555.4,-1330.02 561.4,-1330.02 561.4,-1330.02 591.4,-1330.02 591.4,-1330.02 597.4,-1330.02 603.4,-1336.02 603.4,-1342.02 603.4,-1342.02 603.4,-1354.02 603.4,-1354.02 603.4,-1360.02 597.4,-1366.02 591.4,-1366.02"/>
<text xml:space="preserve" text-anchor="middle" x="576.4" y="-1343.82" font-family="Arial" font-size="14.00">CH0</text>
</g>
<!-- PCA&#45;&gt;CH0 -->
<g id="edge17" class="edge">
<title>PCA-&gt;CH0</title>
<path fill="none" stroke="black" d="M346.52,-1481.71C383.11,-1458.31 448.9,-1416.89 506.7,-1384.02 517.06,-1378.13 528.47,-1372.01 538.96,-1366.52"/>
<polygon fill="black" stroke="black" points="540.46,-1369.68 547.73,-1361.97 537.24,-1363.47 540.46,-1369.68"/>
</g>
<!-- CH1 -->
<g id="node15" class="node">
<title>CH1</title>
<path fill="none" stroke="black" d="M591.4,-1510.02C591.4,-1510.02 561.4,-1510.02 561.4,-1510.02 555.4,-1510.02 549.4,-1504.02 549.4,-1498.02 549.4,-1498.02 549.4,-1486.02 549.4,-1486.02 549.4,-1480.02 555.4,-1474.02 561.4,-1474.02 561.4,-1474.02 591.4,-1474.02 591.4,-1474.02 597.4,-1474.02 603.4,-1480.02 603.4,-1486.02 603.4,-1486.02 603.4,-1498.02 603.4,-1498.02 603.4,-1504.02 597.4,-1510.02 591.4,-1510.02"/>
<text xml:space="preserve" text-anchor="middle" x="576.4" y="-1487.82" font-family="Arial" font-size="14.00">CH1</text>
</g>
<!-- PCA&#45;&gt;CH1 -->
<g id="edge18" class="edge">
<title>PCA-&gt;CH1</title>
<path fill="none" stroke="black" d="M363.24,-1498.62C412.82,-1497.07 491.57,-1494.63 537.89,-1493.19"/>
<polygon fill="black" stroke="black" points="537.82,-1496.69 547.7,-1492.88 537.6,-1489.69 537.82,-1496.69"/>
</g>
<!-- CH2 -->
<g id="node16" class="node">
<title>CH2</title>
<path fill="none" stroke="black" d="M591.4,-1294.02C591.4,-1294.02 561.4,-1294.02 561.4,-1294.02 555.4,-1294.02 549.4,-1288.02 549.4,-1282.02 549.4,-1282.02 549.4,-1270.02 549.4,-1270.02 549.4,-1264.02 555.4,-1258.02 561.4,-1258.02 561.4,-1258.02 591.4,-1258.02 591.4,-1258.02 597.4,-1258.02 603.4,-1264.02 603.4,-1270.02 603.4,-1270.02 603.4,-1282.02 603.4,-1282.02 603.4,-1288.02 597.4,-1294.02 591.4,-1294.02"/>
<text xml:space="preserve" text-anchor="middle" x="576.4" y="-1271.82" font-family="Arial" font-size="14.00">CH2</text>
</g>
<!-- PCA&#45;&gt;CH2 -->
<g id="edge19" class="edge">
<title>PCA-&gt;CH2</title>
<path fill="none" stroke="black" d="M333.24,-1481.62C363.4,-1445.69 434.41,-1365.09 506.7,-1312.02 516.65,-1304.71 528.29,-1298.02 539.13,-1292.44"/>
<polygon fill="black" stroke="black" points="540.43,-1295.7 547.84,-1288.12 537.32,-1289.43 540.43,-1295.7"/>
</g>
<!-- CH3 -->
<g id="node17" class="node">
<title>CH3</title>
<path fill="none" stroke="black" d="M591.4,-1150.02C591.4,-1150.02 561.4,-1150.02 561.4,-1150.02 555.4,-1150.02 549.4,-1144.02 549.4,-1138.02 549.4,-1138.02 549.4,-1126.02 549.4,-1126.02 549.4,-1120.02 555.4,-1114.02 561.4,-1114.02 561.4,-1114.02 591.4,-1114.02 591.4,-1114.02 597.4,-1114.02 603.4,-1120.02 603.4,-1126.02 603.4,-1126.02 603.4,-1138.02 603.4,-1138.02 603.4,-1144.02 597.4,-1150.02 591.4,-1150.02"/>
<text xml:space="preserve" text-anchor="middle" x="576.4" y="-1127.82" font-family="Arial" font-size="14.00">CH3</text>
</g>
<!-- PCA&#45;&gt;CH3 -->
<g id="edge20" class="edge">
<title>PCA-&gt;CH3</title>
<path fill="none" stroke="black" d="M323.26,-1481.81C339.85,-1426.11 397.5,-1256.47 506.7,-1168.02 516.38,-1160.18 528.02,-1153.31 538.95,-1147.73"/>
<polygon fill="black" stroke="black" points="540.3,-1150.97 547.77,-1143.45 537.24,-1144.67 540.3,-1150.97"/>
</g>
<!-- CH4 -->
<g id="node18" class="node">
<title>CH4</title>
<path fill="none" stroke="black" d="M591.4,-1222.02C591.4,-1222.02 561.4,-1222.02 561.4,-1222.02 555.4,-1222.02 549.4,-1216.02 549.4,-1210.02 549.4,-1210.02 549.4,-1198.02 549.4,-1198.02 549.4,-1192.02 555.4,-1186.02 561.4,-1186.02 561.4,-1186.02 591.4,-1186.02 591.4,-1186.02 597.4,-1186.02 603.4,-1192.02 603.4,-1198.02 603.4,-1198.02 603.4,-1210.02 603.4,-1210.02 603.4,-1216.02 597.4,-1222.02 591.4,-1222.02"/>
<text xml:space="preserve" text-anchor="middle" x="576.4" y="-1199.82" font-family="Arial" font-size="14.00">CH4</text>
</g>
<!-- PCA&#45;&gt;CH4 -->
<g id="edge21" class="edge">
<title>PCA-&gt;CH4</title>
<path fill="none" stroke="black" d="M326.86,-1481.53C349.84,-1434.71 416.48,-1310.21 506.7,-1240.02 516.45,-1232.44 528.02,-1225.67 538.87,-1220.1"/>
<polygon fill="black" stroke="black" points="540.17,-1223.36 547.6,-1215.81 537.09,-1217.08 540.17,-1223.36"/>
</g>
<!-- CH5 -->
<g id="node19" class="node">
<title>CH5</title>
<path fill="none" stroke="black" d="M591.4,-1438.02C591.4,-1438.02 561.4,-1438.02 561.4,-1438.02 555.4,-1438.02 549.4,-1432.02 549.4,-1426.02 549.4,-1426.02 549.4,-1414.02 549.4,-1414.02 549.4,-1408.02 555.4,-1402.02 561.4,-1402.02 561.4,-1402.02 591.4,-1402.02 591.4,-1402.02 597.4,-1402.02 603.4,-1408.02 603.4,-1414.02 603.4,-1414.02 603.4,-1426.02 603.4,-1426.02 603.4,-1432.02 597.4,-1438.02 591.4,-1438.02"/>
<text xml:space="preserve" text-anchor="middle" x="576.4" y="-1415.82" font-family="Arial" font-size="14.00">CH5</text>
</g>
<!-- PCA&#45;&gt;CH5 -->
<g id="edge22" class="edge">
<title>PCA-&gt;CH5</title>
<path fill="none" stroke="black" d="M363.24,-1485.99C413.03,-1470.51 492.24,-1445.88 538.48,-1431.5"/>
<polygon fill="black" stroke="black" points="539.26,-1434.92 547.77,-1428.61 537.18,-1428.24 539.26,-1434.92"/>
</g>
<!-- CH6 -->
<g id="node20" class="node">
<title>CH6</title>
<path fill="none" stroke="black" d="M591.4,-1654.02C591.4,-1654.02 561.4,-1654.02 561.4,-1654.02 555.4,-1654.02 549.4,-1648.02 549.4,-1642.02 549.4,-1642.02 549.4,-1630.02 549.4,-1630.02 549.4,-1624.02 555.4,-1618.02 561.4,-1618.02 561.4,-1618.02 591.4,-1618.02 591.4,-1618.02 597.4,-1618.02 603.4,-1624.02 603.4,-1630.02 603.4,-1630.02 603.4,-1642.02 603.4,-1642.02 603.4,-1648.02 597.4,-1654.02 591.4,-1654.02"/>
<text xml:space="preserve" text-anchor="middle" x="576.4" y="-1631.82" font-family="Arial" font-size="14.00">CH6</text>
</g>
<!-- PCA&#45;&gt;CH6 -->
<g id="edge23" class="edge">
<title>PCA-&gt;CH6</title>
<path fill="none" stroke="black" d="M352.86,-1518.5C390.68,-1538.61 452.94,-1571.68 506.7,-1600.02 517.15,-1605.53 528.51,-1611.49 538.93,-1616.95"/>
<polygon fill="black" stroke="black" points="537.14,-1619.96 547.62,-1621.5 540.38,-1613.76 537.14,-1619.96"/>
</g>
<!-- CH7 -->
<g id="node21" class="node">
<title>CH7</title>
<path fill="none" stroke="black" d="M591.4,-1582.02C591.4,-1582.02 561.4,-1582.02 561.4,-1582.02 555.4,-1582.02 549.4,-1576.02 549.4,-1570.02 549.4,-1570.02 549.4,-1558.02 549.4,-1558.02 549.4,-1552.02 555.4,-1546.02 561.4,-1546.02 561.4,-1546.02 591.4,-1546.02 591.4,-1546.02 597.4,-1546.02 603.4,-1552.02 603.4,-1558.02 603.4,-1558.02 603.4,-1570.02 603.4,-1570.02 603.4,-1576.02 597.4,-1582.02 591.4,-1582.02"/>
<text xml:space="preserve" text-anchor="middle" x="576.4" y="-1559.82" font-family="Arial" font-size="14.00">CH7</text>
</g>
<!-- PCA&#45;&gt;CH7 -->
<g id="edge24" class="edge">
<title>PCA-&gt;CH7</title>
<path fill="none" stroke="black" d="M363.24,-1511.24C412.93,-1523.6 491.9,-1543.25 538.19,-1554.76"/>
<polygon fill="black" stroke="black" points="537.2,-1558.12 547.75,-1557.14 538.89,-1551.33 537.2,-1558.12"/>
</g>
<!-- M1 -->
<g id="node22" class="node">
<title>M1</title>
<path fill="none" stroke="black" d="M833.75,-1322.02C833.75,-1322.02 771.74,-1322.02 771.74,-1322.02 765.74,-1322.02 759.74,-1316.02 759.74,-1310.02 759.74,-1310.02 759.74,-1298.02 759.74,-1298.02 759.74,-1292.02 765.74,-1286.02 771.74,-1286.02 771.74,-1286.02 833.75,-1286.02 833.75,-1286.02 839.75,-1286.02 845.75,-1292.02 845.75,-1298.02 845.75,-1298.02 845.75,-1310.02 845.75,-1310.02 845.75,-1316.02 839.75,-1322.02 833.75,-1322.02"/>
<text xml:space="preserve" text-anchor="middle" x="802.75" y="-1299.82" font-family="Arial" font-size="14.00">MOSFET 1</text>
</g>
<!-- CH0&#45;&gt;M1 -->
<g id="edge25" class="edge">
<title>CH0-&gt;M1</title>
<path fill="none" stroke="black" d="M603.8,-1339.24C623.09,-1333.12 649.97,-1325.19 674.09,-1320.22 698.24,-1315.25 725.29,-1311.55 748.25,-1308.96"/>
<polygon fill="black" stroke="black" points="748.44,-1312.46 758,-1307.9 747.69,-1305.5 748.44,-1312.46"/>
<text xml:space="preserve" text-anchor="middle" x="690.82" y="-1324.42" font-family="Arial" font-size="14.00">220Ω</text>
</g>
<!-- M2 -->
<g id="node23" class="node">
<title>M2</title>
<path fill="none" stroke="black" d="M833.75,-1466.02C833.75,-1466.02 771.74,-1466.02 771.74,-1466.02 765.74,-1466.02 759.74,-1460.02 759.74,-1454.02 759.74,-1454.02 759.74,-1442.02 759.74,-1442.02 759.74,-1436.02 765.74,-1430.02 771.74,-1430.02 771.74,-1430.02 833.75,-1430.02 833.75,-1430.02 839.75,-1430.02 845.75,-1436.02 845.75,-1442.02 845.75,-1442.02 845.75,-1454.02 845.75,-1454.02 845.75,-1460.02 839.75,-1466.02 833.75,-1466.02"/>
<text xml:space="preserve" text-anchor="middle" x="802.75" y="-1443.82" font-family="Arial" font-size="14.00">MOSFET 2</text>
</g>
<!-- CH1&#45;&gt;M2 -->
<g id="edge26" class="edge">
<title>CH1-&gt;M2</title>
<path fill="none" stroke="black" d="M603.55,-1480.82C622.72,-1473.13 649.56,-1463.4 674.09,-1458.22 698.1,-1453.15 725.13,-1450.56 748.12,-1449.25"/>
<polygon fill="black" stroke="black" points="748.06,-1452.75 757.88,-1448.76 747.71,-1445.76 748.06,-1452.75"/>
<text xml:space="preserve" text-anchor="middle" x="690.82" y="-1462.42" font-family="Arial" font-size="14.00">220Ω</text>
</g>
<!-- M3 -->
<g id="node24" class="node">
<title>M3</title>
<path fill="none" stroke="black" d="M833.75,-1250.02C833.75,-1250.02 771.74,-1250.02 771.74,-1250.02 765.74,-1250.02 759.74,-1244.02 759.74,-1238.02 759.74,-1238.02 759.74,-1226.02 759.74,-1226.02 759.74,-1220.02 765.74,-1214.02 771.74,-1214.02 771.74,-1214.02 833.75,-1214.02 833.75,-1214.02 839.75,-1214.02 845.75,-1220.02 845.75,-1226.02 845.75,-1226.02 845.75,-1238.02 845.75,-1238.02 845.75,-1244.02 839.75,-1250.02 833.75,-1250.02"/>
<text xml:space="preserve" text-anchor="middle" x="802.75" y="-1227.82" font-family="Arial" font-size="14.00">MOSFET 3</text>
</g>
<!-- CH2&#45;&gt;M3 -->
<g id="edge27" class="edge">
<title>CH2-&gt;M3</title>
<path fill="none" stroke="black" d="M603.57,-1270.89C638.84,-1263.97 702.46,-1251.49 748.11,-1242.54"/>
<polygon fill="black" stroke="black" points="748.68,-1245.99 757.82,-1240.63 747.33,-1239.13 748.68,-1245.99"/>
<text xml:space="preserve" text-anchor="middle" x="690.82" y="-1260.85" font-family="Arial" font-size="14.00">220Ω</text>
</g>
<!-- M4 -->
<g id="node25" class="node">
<title>M4</title>
<path fill="none" stroke="black" d="M833.75,-1106.02C833.75,-1106.02 771.74,-1106.02 771.74,-1106.02 765.74,-1106.02 759.74,-1100.02 759.74,-1094.02 759.74,-1094.02 759.74,-1082.02 759.74,-1082.02 759.74,-1076.02 765.74,-1070.02 771.74,-1070.02 771.74,-1070.02 833.75,-1070.02 833.75,-1070.02 839.75,-1070.02 845.75,-1076.02 845.75,-1082.02 845.75,-1082.02 845.75,-1094.02 845.75,-1094.02 845.75,-1100.02 839.75,-1106.02 833.75,-1106.02"/>
<text xml:space="preserve" text-anchor="middle" x="802.75" y="-1083.82" font-family="Arial" font-size="14.00">MOSFET 4</text>
</g>
<!-- CH3&#45;&gt;M4 -->
<g id="edge28" class="edge">
<title>CH3-&gt;M4</title>
<path fill="none" stroke="black" d="M603.57,-1126.89C638.84,-1119.97 702.46,-1107.49 748.11,-1098.54"/>
<polygon fill="black" stroke="black" points="748.68,-1101.99 757.82,-1096.63 747.33,-1095.13 748.68,-1101.99"/>
<text xml:space="preserve" text-anchor="middle" x="690.82" y="-1116.85" font-family="Arial" font-size="14.00">220Ω</text>
</g>
<!-- M5 -->
<g id="node26" class="node">
<title>M5</title>
<path fill="none" stroke="black" d="M833.75,-1178.02C833.75,-1178.02 771.74,-1178.02 771.74,-1178.02 765.74,-1178.02 759.74,-1172.02 759.74,-1166.02 759.74,-1166.02 759.74,-1154.02 759.74,-1154.02 759.74,-1148.02 765.74,-1142.02 771.74,-1142.02 771.74,-1142.02 833.75,-1142.02 833.75,-1142.02 839.75,-1142.02 845.75,-1148.02 845.75,-1154.02 845.75,-1154.02 845.75,-1166.02 845.75,-1166.02 845.75,-1172.02 839.75,-1178.02 833.75,-1178.02"/>
<text xml:space="preserve" text-anchor="middle" x="802.75" y="-1155.82" font-family="Arial" font-size="14.00">MOSFET 5</text>
</g>
<!-- CH4&#45;&gt;M5 -->
<g id="edge29" class="edge">
<title>CH4-&gt;M5</title>
<path fill="none" stroke="black" d="M603.57,-1198.89C638.84,-1191.97 702.46,-1179.49 748.11,-1170.54"/>
<polygon fill="black" stroke="black" points="748.68,-1173.99 757.82,-1168.63 747.33,-1167.13 748.68,-1173.99"/>
<text xml:space="preserve" text-anchor="middle" x="690.82" y="-1188.85" font-family="Arial" font-size="14.00">220Ω</text>
</g>
<!-- M6 -->
<g id="node27" class="node">
<title>M6</title>
<path fill="none" stroke="black" d="M833.75,-1394.02C833.75,-1394.02 771.74,-1394.02 771.74,-1394.02 765.74,-1394.02 759.74,-1388.02 759.74,-1382.02 759.74,-1382.02 759.74,-1370.02 759.74,-1370.02 759.74,-1364.02 765.74,-1358.02 771.74,-1358.02 771.74,-1358.02 833.75,-1358.02 833.75,-1358.02 839.75,-1358.02 845.75,-1364.02 845.75,-1370.02 845.75,-1370.02 845.75,-1382.02 845.75,-1382.02 845.75,-1388.02 839.75,-1394.02 833.75,-1394.02"/>
<text xml:space="preserve" text-anchor="middle" x="802.75" y="-1371.82" font-family="Arial" font-size="14.00">MOSFET 6</text>
</g>
<!-- CH5&#45;&gt;M6 -->
<g id="edge30" class="edge">
<title>CH5-&gt;M6</title>
<path fill="none" stroke="black" d="M603.57,-1414.89C638.84,-1407.97 702.46,-1395.49 748.11,-1386.54"/>
<polygon fill="black" stroke="black" points="748.68,-1389.99 757.82,-1384.63 747.33,-1383.13 748.68,-1389.99"/>
<text xml:space="preserve" text-anchor="middle" x="690.82" y="-1404.85" font-family="Arial" font-size="14.00">220Ω</text>
</g>
<!-- M7 -->
<g id="node28" class="node">
<title>M7</title>
<path fill="none" stroke="black" d="M833.75,-1610.02C833.75,-1610.02 771.74,-1610.02 771.74,-1610.02 765.74,-1610.02 759.74,-1604.02 759.74,-1598.02 759.74,-1598.02 759.74,-1586.02 759.74,-1586.02 759.74,-1580.02 765.74,-1574.02 771.74,-1574.02 771.74,-1574.02 833.75,-1574.02 833.75,-1574.02 839.75,-1574.02 845.75,-1580.02 845.75,-1586.02 845.75,-1586.02 845.75,-1598.02 845.75,-1598.02 845.75,-1604.02 839.75,-1610.02 833.75,-1610.02"/>
<text xml:space="preserve" text-anchor="middle" x="802.75" y="-1587.82" font-family="Arial" font-size="14.00">MOSFET 7</text>
</g>
<!-- CH6&#45;&gt;M7 -->
<g id="edge31" class="edge">
<title>CH6-&gt;M7</title>
<path fill="none" stroke="black" d="M603.57,-1630.89C638.84,-1623.97 702.46,-1611.49 748.11,-1602.54"/>
<polygon fill="black" stroke="black" points="748.68,-1605.99 757.82,-1600.63 747.33,-1599.13 748.68,-1605.99"/>
<text xml:space="preserve" text-anchor="middle" x="690.82" y="-1620.85" font-family="Arial" font-size="14.00">220Ω</text>
</g>
<!-- M8 -->
<g id="node29" class="node">
<title>M8</title>
<path fill="none" stroke="black" d="M833.75,-1538.02C833.75,-1538.02 771.74,-1538.02 771.74,-1538.02 765.74,-1538.02 759.74,-1532.02 759.74,-1526.02 759.74,-1526.02 759.74,-1514.02 759.74,-1514.02 759.74,-1508.02 765.74,-1502.02 771.74,-1502.02 771.74,-1502.02 833.75,-1502.02 833.75,-1502.02 839.75,-1502.02 845.75,-1508.02 845.75,-1514.02 845.75,-1514.02 845.75,-1526.02 845.75,-1526.02 845.75,-1532.02 839.75,-1538.02 833.75,-1538.02"/>
<text xml:space="preserve" text-anchor="middle" x="802.75" y="-1515.82" font-family="Arial" font-size="14.00">MOSFET 8</text>
</g>
<!-- CH7&#45;&gt;M8 -->
<g id="edge32" class="edge">
<title>CH7-&gt;M8</title>
<path fill="none" stroke="black" d="M603.47,-1550.37C629.49,-1536.86 666.66,-1517.96 674.09,-1516.22 698.01,-1510.63 725.14,-1510.59 748.21,-1512.34"/>
<polygon fill="black" stroke="black" points="747.74,-1515.81 758.02,-1513.23 748.37,-1508.84 747.74,-1515.81"/>
<text xml:space="preserve" text-anchor="middle" x="690.82" y="-1520.42" font-family="Arial" font-size="14.00">220Ω</text>
</g>
<!-- M1&#45;&gt;GND12 -->
<g id="edge49" class="edge">
<title>M1-&gt;GND12</title>
<path fill="none" stroke="black" d="M845.98,-1316.64C885.69,-1328.52 945.4,-1346.36 988.98,-1359.39"/>
<polygon fill="black" stroke="black" points="987.94,-1362.73 998.52,-1362.24 989.95,-1356.03 987.94,-1362.73"/>
<text xml:space="preserve" text-anchor="middle" x="921.13" y="-1348.53" font-family="Arial" font-size="14.00">Source</text>
</g>
<!-- M2&#45;&gt;GND12 -->
<g id="edge50" class="edge">
<title>M2-&gt;GND12</title>
<path fill="none" stroke="black" d="M845.98,-1435.4C885.69,-1423.52 945.4,-1405.67 988.98,-1392.65"/>
<polygon fill="black" stroke="black" points="989.95,-1396.01 998.52,-1389.8 987.94,-1389.31 989.95,-1396.01"/>
<text xml:space="preserve" text-anchor="middle" x="921.13" y="-1422.67" font-family="Arial" font-size="14.00">Source</text>
</g>
<!-- M3&#45;&gt;GND12 -->
<g id="edge51" class="edge">
<title>M3-&gt;GND12</title>
<path fill="none" stroke="black" d="M838.33,-1250.42C848.83,-1256.03 860.37,-1262.25 870.95,-1268.02 903.24,-1285.64 911.91,-1289.04 943.3,-1308.22 966.32,-1322.28 991.53,-1339.15 1011.05,-1352.54"/>
<polygon fill="black" stroke="black" points="1008.95,-1355.35 1019.17,-1358.14 1012.92,-1349.58 1008.95,-1355.35"/>
<text xml:space="preserve" text-anchor="middle" x="921.13" y="-1312.42" font-family="Arial" font-size="14.00">Source</text>
</g>
<!-- M4&#45;&gt;GND12 -->
<g id="edge52" class="edge">
<title>M4-&gt;GND12</title>
<path fill="none" stroke="black" d="M842.57,-1106.39C852.17,-1111.58 862.21,-1117.59 870.95,-1124.02 907.28,-1150.77 915.92,-1159.36 943.3,-1195.22 981.36,-1245.06 1014.56,-1310.84 1031.87,-1347.76"/>
<polygon fill="black" stroke="black" points="1028.51,-1348.82 1035.88,-1356.43 1034.86,-1345.88 1028.51,-1348.82"/>
<text xml:space="preserve" text-anchor="middle" x="921.13" y="-1199.42" font-family="Arial" font-size="14.00">Source</text>
</g>
<!-- M5&#45;&gt;GND12 -->
<g id="edge53" class="edge">
<title>M5-&gt;GND12</title>
<path fill="none" stroke="black" d="M841.57,-1178.42C851.39,-1183.7 861.78,-1189.73 870.95,-1196.02 935.17,-1240.04 994.62,-1310.7 1024.48,-1349.09"/>
<polygon fill="black" stroke="black" points="1021.63,-1351.12 1030.5,-1356.91 1027.18,-1346.85 1021.63,-1351.12"/>
<text xml:space="preserve" text-anchor="middle" x="921.13" y="-1257.24" font-family="Arial" font-size="14.00">Source</text>
</g>
<!-- M6&#45;&gt;GND12 -->
<g id="edge54" class="edge">
<title>M6-&gt;GND12</title>
<path fill="none" stroke="black" d="M845.98,-1376.02C879.57,-1376.02 927.47,-1376.02 967.82,-1376.02"/>
<polygon fill="black" stroke="black" points="967.74,-1379.52 977.74,-1376.02 967.74,-1372.52 967.74,-1379.52"/>
<text xml:space="preserve" text-anchor="middle" x="921.13" y="-1380.22" font-family="Arial" font-size="14.00">Source</text>
</g>
<!-- M7&#45;&gt;GND12 -->
<g id="edge55" class="edge">
<title>M7-&gt;GND12</title>
<path fill="none" stroke="black" d="M841.56,-1573.61C851.38,-1568.33 861.77,-1562.3 870.95,-1556.02 935.2,-1512.05 994.64,-1441.37 1024.49,-1402.97"/>
<polygon fill="black" stroke="black" points="1027.19,-1405.2 1030.5,-1395.13 1021.64,-1400.93 1027.19,-1405.2"/>
<text xml:space="preserve" text-anchor="middle" x="921.13" y="-1535.56" font-family="Arial" font-size="14.00">Source</text>
</g>
<!-- M8&#45;&gt;GND12 -->
<g id="edge56" class="edge">
<title>M8-&gt;GND12</title>
<path fill="none" stroke="black" d="M838.33,-1501.61C848.82,-1495.99 860.37,-1489.78 870.95,-1484.02 903.22,-1466.45 911.94,-1463.17 943.3,-1444.02 966.35,-1429.95 991.56,-1413.03 1011.07,-1399.59"/>
<polygon fill="black" stroke="black" points="1012.96,-1402.54 1019.18,-1393.97 1008.97,-1396.79 1012.96,-1402.54"/>
<text xml:space="preserve" text-anchor="middle" x="921.13" y="-1472.73" font-family="Arial" font-size="14.00">Source</text>
</g>
<!-- B1 -->
<g id="node30" class="node">
<title>B1</title>
<path fill="none" stroke="black" d="M623.76,-686.02C623.76,-686.02 529.03,-686.02 529.03,-686.02 523.03,-686.02 517.03,-680.02 517.03,-674.02 517.03,-674.02 517.03,-662.02 517.03,-662.02 517.03,-656.02 523.03,-650.02 529.03,-650.02 529.03,-650.02 623.76,-650.02 623.76,-650.02 629.76,-650.02 635.76,-656.02 635.76,-662.02 635.76,-662.02 635.76,-674.02 635.76,-674.02 635.76,-680.02 629.76,-686.02 623.76,-686.02"/>
<text xml:space="preserve" text-anchor="middle" x="576.4" y="-663.82" font-family="Arial" font-size="14.00">Bobina Interior 1</text>
</g>
<!-- B1&#45;&gt;M1 -->
<g id="edge41" class="edge">
<title>B1-&gt;M1</title>
<path fill="none" stroke="black" d="M620.6,-686.43C629.58,-691.38 638.59,-697.26 646.09,-704.02 682.7,-736.96 691.89,-749.53 707.55,-796.22 740.95,-895.8 679.23,-1179.37 735.55,-1268.02 739.32,-1273.96 744.44,-1279 750.16,-1283.24"/>
<polygon fill="black" stroke="black" points="747.97,-1286 758.27,-1288.46 751.76,-1280.11 747.97,-1286"/>
<text xml:space="preserve" text-anchor="middle" x="690.82" y="-800.42" font-family="Arial" font-size="14.00">Drain</text>
</g>
<!-- B2 -->
<g id="node31" class="node">
<title>B2</title>
<path fill="none" stroke="black" d="M623.76,-758.02C623.76,-758.02 529.03,-758.02 529.03,-758.02 523.03,-758.02 517.03,-752.02 517.03,-746.02 517.03,-746.02 517.03,-734.02 517.03,-734.02 517.03,-728.02 523.03,-722.02 529.03,-722.02 529.03,-722.02 623.76,-722.02 623.76,-722.02 629.76,-722.02 635.76,-728.02 635.76,-734.02 635.76,-734.02 635.76,-746.02 635.76,-746.02 635.76,-752.02 629.76,-758.02 623.76,-758.02"/>
<text xml:space="preserve" text-anchor="middle" x="576.4" y="-735.82" font-family="Arial" font-size="14.00">Bobina Interior 2</text>
</g>
<!-- B2&#45;&gt;M2 -->
<g id="edge42" class="edge">
<title>B2-&gt;M2</title>
<path fill="none" stroke="black" d="M624.64,-758.37C632.64,-763.15 640.23,-768.99 646.09,-776.02 672.92,-808.2 658.6,-827.1 674.09,-866.02 686.58,-897.39 698.96,-901.57 707.55,-934.22 734.61,-1037.08 678.55,-1322.22 735.55,-1412.02 739.32,-1417.96 744.43,-1423 750.16,-1427.24"/>
<polygon fill="black" stroke="black" points="747.97,-1430 758.27,-1432.47 751.75,-1424.11 747.97,-1430"/>
<text xml:space="preserve" text-anchor="middle" x="690.82" y="-938.42" font-family="Arial" font-size="14.00">Drain</text>
</g>
<!-- B3 -->
<g id="node32" class="node">
<title>B3</title>
<path fill="none" stroke="black" d="M623.76,-614.02C623.76,-614.02 529.03,-614.02 529.03,-614.02 523.03,-614.02 517.03,-608.02 517.03,-602.02 517.03,-602.02 517.03,-590.02 517.03,-590.02 517.03,-584.02 523.03,-578.02 529.03,-578.02 529.03,-578.02 623.76,-578.02 623.76,-578.02 629.76,-578.02 635.76,-584.02 635.76,-590.02 635.76,-590.02 635.76,-602.02 635.76,-602.02 635.76,-608.02 629.76,-614.02 623.76,-614.02"/>
<text xml:space="preserve" text-anchor="middle" x="576.4" y="-591.82" font-family="Arial" font-size="14.00">Bobina Interior 3</text>
</g>
<!-- B3&#45;&gt;M3 -->
<g id="edge43" class="edge">
<title>B3-&gt;M3</title>
<path fill="none" stroke="black" d="M619.04,-614.4C628.4,-619.45 637.96,-625.38 646.09,-632.02 679.54,-659.3 691.89,-667 707.55,-707.22 747.01,-808.61 677.3,-1104.13 735.55,-1196.02 739.32,-1201.97 744.43,-1207 750.15,-1211.25"/>
<polygon fill="black" stroke="black" points="747.96,-1214 758.26,-1216.47 751.75,-1208.12 747.96,-1214"/>
<text xml:space="preserve" text-anchor="middle" x="690.82" y="-711.42" font-family="Arial" font-size="14.00">Drain</text>
</g>
<!-- B4 -->
<g id="node33" class="node">
<title>B4</title>
<path fill="none" stroke="black" d="M623.76,-470.02C623.76,-470.02 529.03,-470.02 529.03,-470.02 523.03,-470.02 517.03,-464.02 517.03,-458.02 517.03,-458.02 517.03,-446.02 517.03,-446.02 517.03,-440.02 523.03,-434.02 529.03,-434.02 529.03,-434.02 623.76,-434.02 623.76,-434.02 629.76,-434.02 635.76,-440.02 635.76,-446.02 635.76,-446.02 635.76,-458.02 635.76,-458.02 635.76,-464.02 629.76,-470.02 623.76,-470.02"/>
<text xml:space="preserve" text-anchor="middle" x="576.4" y="-447.82" font-family="Arial" font-size="14.00">Bobina Interior 4</text>
</g>
<!-- B4&#45;&gt;M4 -->
<g id="edge44" class="edge">
<title>B4-&gt;M4</title>
<path fill="none" stroke="black" d="M619.2,-470.42C649.62,-486.27 688.65,-512.29 707.55,-548.22 755.22,-638.84 789.33,-958.76 798.97,-1058.26"/>
<polygon fill="black" stroke="black" points="795.47,-1058.4 799.91,-1068.02 802.44,-1057.73 795.47,-1058.4"/>
<text xml:space="preserve" text-anchor="middle" x="690.82" y="-552.42" font-family="Arial" font-size="14.00">Drain</text>
</g>
<!-- B5 -->
<g id="node34" class="node">
<title>B5</title>
<path fill="none" stroke="black" d="M626.09,-542.02C626.09,-542.02 526.7,-542.02 526.7,-542.02 520.7,-542.02 514.7,-536.02 514.7,-530.02 514.7,-530.02 514.7,-518.02 514.7,-518.02 514.7,-512.02 520.7,-506.02 526.7,-506.02 526.7,-506.02 626.09,-506.02 626.09,-506.02 632.09,-506.02 638.09,-512.02 638.09,-518.02 638.09,-518.02 638.09,-530.02 638.09,-530.02 638.09,-536.02 632.09,-542.02 626.09,-542.02"/>
<text xml:space="preserve" text-anchor="middle" x="576.4" y="-519.82" font-family="Arial" font-size="14.00">Bobina Exterior 1</text>
</g>
<!-- B5&#45;&gt;M5 -->
<g id="edge45" class="edge">
<title>B5-&gt;M5</title>
<path fill="none" stroke="black" d="M618.52,-542.41C628,-547.49 637.74,-553.44 646.09,-560.02 678.67,-585.68 691.87,-591.83 707.55,-630.22 749.12,-731.96 676.73,-1031.17 735.55,-1124.02 739.32,-1129.97 744.43,-1135 750.15,-1139.25"/>
<polygon fill="black" stroke="black" points="747.96,-1142 758.26,-1144.47 751.74,-1136.12 747.96,-1142"/>
<text xml:space="preserve" text-anchor="middle" x="690.82" y="-634.42" font-family="Arial" font-size="14.00">Drain</text>
</g>
<!-- B6 -->
<g id="node35" class="node">
<title>B6</title>
<path fill="none" stroke="black" d="M626.09,-830.02C626.09,-830.02 526.7,-830.02 526.7,-830.02 520.7,-830.02 514.7,-824.02 514.7,-818.02 514.7,-818.02 514.7,-806.02 514.7,-806.02 514.7,-800.02 520.7,-794.02 526.7,-794.02 526.7,-794.02 626.09,-794.02 626.09,-794.02 632.09,-794.02 638.09,-800.02 638.09,-806.02 638.09,-806.02 638.09,-818.02 638.09,-818.02 638.09,-824.02 632.09,-830.02 626.09,-830.02"/>
<text xml:space="preserve" text-anchor="middle" x="576.4" y="-807.82" font-family="Arial" font-size="14.00">Bobina Exterior 2</text>
</g>
<!-- B6&#45;&gt;M6 -->
<g id="edge46" class="edge">
<title>B6-&gt;M6</title>
<path fill="none" stroke="black" d="M638.48,-812.03C663.67,-815.4 690.83,-824.06 707.55,-844.22 777.99,-929.16 676.51,-1246.79 735.55,-1340.02 739.32,-1345.97 744.42,-1351 750.14,-1355.25"/>
<polygon fill="black" stroke="black" points="747.95,-1358 758.26,-1360.47 751.74,-1352.12 747.95,-1358"/>
<text xml:space="preserve" text-anchor="middle" x="690.82" y="-848.42" font-family="Arial" font-size="14.00">Drain</text>
</g>
<!-- B7 -->
<g id="node36" class="node">
<title>B7</title>
<path fill="none" stroke="black" d="M626.09,-974.02C626.09,-974.02 526.7,-974.02 526.7,-974.02 520.7,-974.02 514.7,-968.02 514.7,-962.02 514.7,-962.02 514.7,-950.02 514.7,-950.02 514.7,-944.02 520.7,-938.02 526.7,-938.02 526.7,-938.02 626.09,-938.02 626.09,-938.02 632.09,-938.02 638.09,-944.02 638.09,-950.02 638.09,-950.02 638.09,-962.02 638.09,-962.02 638.09,-968.02 632.09,-974.02 626.09,-974.02"/>
<text xml:space="preserve" text-anchor="middle" x="576.4" y="-951.82" font-family="Arial" font-size="14.00">Bobina Exterior 3</text>
</g>
<!-- B7&#45;&gt;M7 -->
<g id="edge47" class="edge">
<title>B7-&gt;M7</title>
<path fill="none" stroke="black" d="M589.2,-974.26C605.34,-1000.3 633.71,-1050.16 646.09,-1097.02 671.19,-1191.96 617.28,-1457.93 674.09,-1538.02 691.35,-1562.34 721.81,-1575.77 748.65,-1583.15"/>
<polygon fill="black" stroke="black" points="747.48,-1586.47 758.03,-1585.5 749.18,-1579.68 747.48,-1586.47"/>
<text xml:space="preserve" text-anchor="middle" x="690.82" y="-1570.95" font-family="Arial" font-size="14.00">Drain</text>
</g>
<!-- B8 -->
<g id="node37" class="node">
<title>B8</title>
<path fill="none" stroke="black" d="M626.09,-902.02C626.09,-902.02 526.7,-902.02 526.7,-902.02 520.7,-902.02 514.7,-896.02 514.7,-890.02 514.7,-890.02 514.7,-878.02 514.7,-878.02 514.7,-872.02 520.7,-866.02 526.7,-866.02 526.7,-866.02 626.09,-866.02 626.09,-866.02 632.09,-866.02 638.09,-872.02 638.09,-878.02 638.09,-878.02 638.09,-890.02 638.09,-890.02 638.09,-896.02 632.09,-902.02 626.09,-902.02"/>
<text xml:space="preserve" text-anchor="middle" x="576.4" y="-879.82" font-family="Arial" font-size="14.00">Bobina Exterior 4</text>
</g>
<!-- B8&#45;&gt;M8 -->
<g id="edge48" class="edge">
<title>B8-&gt;M8</title>
<path fill="none" stroke="black" d="M623.94,-902.46C632.09,-907.25 639.93,-913.07 646.09,-920.02 697.01,-977.35 691.06,-1006.34 707.55,-1081.22 726.85,-1168.85 687.05,-1408.53 735.55,-1484.02 739.31,-1489.87 744.36,-1494.84 750.01,-1499.05"/>
<polygon fill="black" stroke="black" points="747.7,-1501.73 758,-1504.23 751.51,-1495.85 747.7,-1501.73"/>
<text xml:space="preserve" text-anchor="middle" x="690.82" y="-1085.42" font-family="Arial" font-size="14.00">Drain</text>
</g>
<!-- D1 -->
<g id="node38" class="node">
<title>D1</title>
<path fill="none" stroke="black" d="M332.14,-583.02C332.14,-583.02 302.14,-583.02 302.14,-583.02 296.14,-583.02 290.14,-577.02 290.14,-571.02 290.14,-571.02 290.14,-559.02 290.14,-559.02 290.14,-553.02 296.14,-547.02 302.14,-547.02 302.14,-547.02 332.14,-547.02 332.14,-547.02 338.14,-547.02 344.14,-553.02 344.14,-559.02 344.14,-559.02 344.14,-571.02 344.14,-571.02 344.14,-577.02 338.14,-583.02 332.14,-583.02"/>
<text xml:space="preserve" text-anchor="middle" x="317.14" y="-560.82" font-family="Arial" font-size="14.00">D1</text>
</g>
<!-- D1&#45;&gt;B1 -->
<g id="edge57" class="edge">
<title>D1-&gt;B1</title>
<path fill="none" stroke="black" stroke-dasharray="5,2" d="M344.22,-575.46C384.94,-591.76 464.56,-623.64 518.86,-645.38"/>
<polygon fill="black" stroke="black" points="517.37,-648.56 527.96,-649.03 519.98,-642.06 517.37,-648.56"/>
<text xml:space="preserve" text-anchor="middle" x="454.58" y="-632.97" font-family="Arial" font-size="14.00">Flyback</text>
</g>
<!-- D2 -->
<g id="node39" class="node">
<title>D2</title>
<path fill="none" stroke="black" d="M332.14,-727.02C332.14,-727.02 302.14,-727.02 302.14,-727.02 296.14,-727.02 290.14,-721.02 290.14,-715.02 290.14,-715.02 290.14,-703.02 290.14,-703.02 290.14,-697.02 296.14,-691.02 302.14,-691.02 302.14,-691.02 332.14,-691.02 332.14,-691.02 338.14,-691.02 344.14,-697.02 344.14,-703.02 344.14,-703.02 344.14,-715.02 344.14,-715.02 344.14,-721.02 338.14,-727.02 332.14,-727.02"/>
<text xml:space="preserve" text-anchor="middle" x="317.14" y="-704.82" font-family="Arial" font-size="14.00">D2</text>
</g>
<!-- D2&#45;&gt;B2 -->
<g id="edge58" class="edge">
<title>D2-&gt;B2</title>
<path fill="none" stroke="black" stroke-dasharray="5,2" d="M344.22,-712.16C381.73,-716.68 452.24,-725.18 505.57,-731.61"/>
<polygon fill="black" stroke="black" points="504.82,-735.04 515.17,-732.76 505.66,-728.09 504.82,-735.04"/>
<text xml:space="preserve" text-anchor="middle" x="454.58" y="-732.41" font-family="Arial" font-size="14.00">Flyback</text>
</g>
<!-- D3 -->
<g id="node40" class="node">
<title>D3</title>
<path fill="none" stroke="black" d="M332.14,-511.02C332.14,-511.02 302.14,-511.02 302.14,-511.02 296.14,-511.02 290.14,-505.02 290.14,-499.02 290.14,-499.02 290.14,-487.02 290.14,-487.02 290.14,-481.02 296.14,-475.02 302.14,-475.02 302.14,-475.02 332.14,-475.02 332.14,-475.02 338.14,-475.02 344.14,-481.02 344.14,-487.02 344.14,-487.02 344.14,-499.02 344.14,-499.02 344.14,-505.02 338.14,-511.02 332.14,-511.02"/>
<text xml:space="preserve" text-anchor="middle" x="317.14" y="-488.82" font-family="Arial" font-size="14.00">D3</text>
</g>
<!-- D3&#45;&gt;B3 -->
<g id="edge59" class="edge">
<title>D3-&gt;B3</title>
<path fill="none" stroke="black" stroke-dasharray="5,2" d="M344.22,-503.46C384.94,-519.76 464.56,-551.64 518.86,-573.38"/>
<polygon fill="black" stroke="black" points="517.37,-576.56 527.96,-577.03 519.98,-570.06 517.37,-576.56"/>
<text xml:space="preserve" text-anchor="middle" x="454.58" y="-560.97" font-family="Arial" font-size="14.00">Flyback</text>
</g>
<!-- D4 -->
<g id="node41" class="node">
<title>D4</title>
<path fill="none" stroke="black" d="M332.14,-367.02C332.14,-367.02 302.14,-367.02 302.14,-367.02 296.14,-367.02 290.14,-361.02 290.14,-355.02 290.14,-355.02 290.14,-343.02 290.14,-343.02 290.14,-337.02 296.14,-331.02 302.14,-331.02 302.14,-331.02 332.14,-331.02 332.14,-331.02 338.14,-331.02 344.14,-337.02 344.14,-343.02 344.14,-343.02 344.14,-355.02 344.14,-355.02 344.14,-361.02 338.14,-367.02 332.14,-367.02"/>
<text xml:space="preserve" text-anchor="middle" x="317.14" y="-344.82" font-family="Arial" font-size="14.00">D4</text>
</g>
<!-- D4&#45;&gt;B4 -->
<g id="edge60" class="edge">
<title>D4-&gt;B4</title>
<path fill="none" stroke="black" stroke-dasharray="5,2" d="M344.41,-347.06C377.28,-345.66 434.6,-346.72 478.7,-366.22 508.43,-379.36 535.47,-405.09 553.35,-424.96"/>
<polygon fill="black" stroke="black" points="550.69,-427.24 559.9,-432.47 555.96,-422.64 550.69,-427.24"/>
<text xml:space="preserve" text-anchor="middle" x="454.58" y="-370.42" font-family="Arial" font-size="14.00">Flyback</text>
</g>
<!-- D5 -->
<g id="node42" class="node">
<title>D5</title>
<path fill="none" stroke="black" d="M332.14,-439.02C332.14,-439.02 302.14,-439.02 302.14,-439.02 296.14,-439.02 290.14,-433.02 290.14,-427.02 290.14,-427.02 290.14,-415.02 290.14,-415.02 290.14,-409.02 296.14,-403.02 302.14,-403.02 302.14,-403.02 332.14,-403.02 332.14,-403.02 338.14,-403.02 344.14,-409.02 344.14,-415.02 344.14,-415.02 344.14,-427.02 344.14,-427.02 344.14,-433.02 338.14,-439.02 332.14,-439.02"/>
<text xml:space="preserve" text-anchor="middle" x="317.14" y="-416.82" font-family="Arial" font-size="14.00">D5</text>
</g>
<!-- D5&#45;&gt;B5 -->
<g id="edge61" class="edge">
<title>D5-&gt;B5</title>
<path fill="none" stroke="black" stroke-dasharray="5,2" d="M344.22,-431.46C384.94,-447.76 464.56,-479.64 518.86,-501.38"/>
<polygon fill="black" stroke="black" points="517.37,-504.56 527.96,-505.03 519.98,-498.06 517.37,-504.56"/>
<text xml:space="preserve" text-anchor="middle" x="454.58" y="-488.97" font-family="Arial" font-size="14.00">Flyback</text>
</g>
<!-- D6 -->
<g id="node43" class="node">
<title>D6</title>
<path fill="none" stroke="black" d="M332.14,-655.02C332.14,-655.02 302.14,-655.02 302.14,-655.02 296.14,-655.02 290.14,-649.02 290.14,-643.02 290.14,-643.02 290.14,-631.02 290.14,-631.02 290.14,-625.02 296.14,-619.02 302.14,-619.02 302.14,-619.02 332.14,-619.02 332.14,-619.02 338.14,-619.02 344.14,-625.02 344.14,-631.02 344.14,-631.02 344.14,-643.02 344.14,-643.02 344.14,-649.02 338.14,-655.02 332.14,-655.02"/>
<text xml:space="preserve" text-anchor="middle" x="317.14" y="-632.82" font-family="Arial" font-size="14.00">D6</text>
</g>
<!-- D6&#45;&gt;B6 -->
<g id="edge62" class="edge">
<title>D6-&gt;B6</title>
<path fill="none" stroke="black" stroke-dasharray="5,2" d="M344.63,-644.32C360.77,-649.91 380.84,-659.09 394.47,-673.02 422.01,-701.19 402.09,-726.69 430.47,-754.02 450.62,-773.43 478.09,-786.62 503.7,-795.45"/>
<polygon fill="black" stroke="black" points="502.51,-798.74 513.1,-798.5 504.67,-792.08 502.51,-798.74"/>
<text xml:space="preserve" text-anchor="middle" x="454.58" y="-788.5" font-family="Arial" font-size="14.00">Flyback</text>
</g>
<!-- D7 -->
<g id="node44" class="node">
<title>D7</title>
<path fill="none" stroke="black" d="M332.14,-871.02C332.14,-871.02 302.14,-871.02 302.14,-871.02 296.14,-871.02 290.14,-865.02 290.14,-859.02 290.14,-859.02 290.14,-847.02 290.14,-847.02 290.14,-841.02 296.14,-835.02 302.14,-835.02 302.14,-835.02 332.14,-835.02 332.14,-835.02 338.14,-835.02 344.14,-841.02 344.14,-847.02 344.14,-847.02 344.14,-859.02 344.14,-859.02 344.14,-865.02 338.14,-871.02 332.14,-871.02"/>
<text xml:space="preserve" text-anchor="middle" x="317.14" y="-848.82" font-family="Arial" font-size="14.00">D7</text>
</g>
<!-- D7&#45;&gt;B7 -->
<g id="edge63" class="edge">
<title>D7-&gt;B7</title>
<path fill="none" stroke="black" stroke-dasharray="5,2" d="M344.22,-863.46C384.94,-879.76 464.56,-911.64 518.86,-933.38"/>
<polygon fill="black" stroke="black" points="517.37,-936.56 527.96,-937.03 519.98,-930.06 517.37,-936.56"/>
<text xml:space="preserve" text-anchor="middle" x="454.58" y="-920.97" font-family="Arial" font-size="14.00">Flyback</text>
</g>
<!-- D8 -->
<g id="node45" class="node">
<title>D8</title>
<path fill="none" stroke="black" d="M332.14,-799.02C332.14,-799.02 302.14,-799.02 302.14,-799.02 296.14,-799.02 290.14,-793.02 290.14,-787.02 290.14,-787.02 290.14,-775.02 290.14,-775.02 290.14,-769.02 296.14,-763.02 302.14,-763.02 302.14,-763.02 332.14,-763.02 332.14,-763.02 338.14,-763.02 344.14,-769.02 344.14,-775.02 344.14,-775.02 344.14,-787.02 344.14,-787.02 344.14,-793.02 338.14,-799.02 332.14,-799.02"/>
<text xml:space="preserve" text-anchor="middle" x="317.14" y="-776.82" font-family="Arial" font-size="14.00">D8</text>
</g>
<!-- D8&#45;&gt;B8 -->
<g id="edge64" class="edge">
<title>D8-&gt;B8</title>
<path fill="none" stroke="black" stroke-dasharray="5,2" d="M344.22,-791.46C384.94,-807.76 464.56,-839.64 518.86,-861.38"/>
<polygon fill="black" stroke="black" points="517.37,-864.56 527.96,-865.03 519.98,-858.06 517.37,-864.56"/>
<text xml:space="preserve" text-anchor="middle" x="454.58" y="-848.97" font-family="Arial" font-size="14.00">Flyback</text>
</g>
<!-- PSU12 -->
<g id="node46" class="node">
<title>PSU12</title>
<ellipse fill="none" stroke="black" cx="66.61" cy="-536.02" rx="66.61" ry="18"/>
<text xml:space="preserve" text-anchor="middle" x="66.61" y="-531.82" font-family="Arial" font-size="14.00">+12V Fuente</text>
</g>
<!-- PSU12&#45;&gt;B1 -->
<g id="edge33" class="edge">
<title>PSU12-&gt;B1</title>
<path fill="none" stroke="black" d="M67.47,-517.69C68.18,-464.93 78.32,-312.33 169.21,-248.02 250.94,-190.19 303.17,-206.95 394.47,-248.02 445.93,-271.17 456.16,-291.29 478.7,-343.02 504.48,-402.17 470.68,-578.49 506.7,-632.02 509.41,-636.04 512.71,-639.64 516.39,-642.86"/>
<polygon fill="black" stroke="black" points="514.24,-645.62 524.34,-648.8 518.42,-640.01 514.24,-645.62"/>
</g>
<!-- PSU12&#45;&gt;B2 -->
<g id="edge34" class="edge">
<title>PSU12-&gt;B2</title>
<path fill="none" stroke="black" d="M74.79,-517.77C93.76,-472.54 150.04,-355.92 240.81,-314.02 302.81,-285.4 342.91,-269.23 394.47,-314.02 437.67,-351.55 412.08,-514.83 430.47,-569.02 452.61,-634.27 457.22,-656.07 506.7,-704.02 511.11,-708.29 516.13,-712.19 521.41,-715.7"/>
<polygon fill="black" stroke="black" points="519.44,-718.61 529.8,-720.83 523.09,-712.63 519.44,-718.61"/>
</g>
<!-- PSU12&#45;&gt;B3 -->
<g id="edge35" class="edge">
<title>PSU12-&gt;B3</title>
<path fill="none" stroke="black" d="M69.85,-517.76C78.54,-450.35 112.38,-217.1 169.21,-174.02 278.83,-90.93 377.98,-80.34 478.7,-174.02 541.68,-232.59 459.55,-488.09 506.7,-560.02 509.32,-564.01 512.53,-567.59 516.11,-570.78"/>
<polygon fill="black" stroke="black" points="513.78,-573.41 523.86,-576.67 518.01,-567.83 513.78,-573.41"/>
</g>
<!-- PSU12&#45;&gt;B4 -->
<g id="edge36" class="edge">
<title>PSU12-&gt;B4</title>
<path fill="none" stroke="black" d="M69.45,-517.58C77.55,-439.35 112.27,-135.58 169.21,-61.02 190.95,-32.55 206,-32.48 240.81,-24.02 344.41,1.17 407.71,24.54 478.7,-55.02 528.06,-110.33 561.27,-339.93 571.81,-422.38"/>
<polygon fill="black" stroke="black" points="568.32,-422.66 573.03,-432.15 575.26,-421.79 568.32,-422.66"/>
</g>
<!-- PSU12&#45;&gt;B5 -->
<g id="edge37" class="edge">
<title>PSU12-&gt;B5</title>
<path fill="none" stroke="black" d="M68.95,-517.57C74.91,-441.5 101.72,-153.59 169.21,-100.02 276.95,-14.5 378,-6.32 478.7,-100.02 541.99,-158.91 459.32,-415.71 506.7,-488.02 509.32,-492.01 512.52,-495.59 516.11,-498.79"/>
<polygon fill="black" stroke="black" points="513.78,-501.41 523.86,-504.67 518.01,-495.83 513.78,-501.41"/>
</g>
<!-- PSU12&#45;&gt;B6 -->
<g id="edge38" class="edge">
<title>PSU12-&gt;B6</title>
<path fill="none" stroke="black" d="M69.02,-554.08C75.14,-617.94 105.51,-833.22 240.81,-908.02 334.45,-959.79 387.52,-927.02 478.7,-871.02 492.43,-862.59 493.28,-856.91 506.7,-848.02 513.04,-843.82 519.92,-839.73 526.79,-835.89"/>
<polygon fill="black" stroke="black" points="528.34,-839.03 535.47,-831.19 525.01,-832.87 528.34,-839.03"/>
</g>
<!-- PSU12&#45;&gt;B7 -->
<g id="edge39" class="edge">
<title>PSU12-&gt;B7</title>
<path fill="none" stroke="black" d="M66.88,-554.5C65.38,-617.35 68.62,-825.72 169.21,-949.02 251.58,-1049.98 426.6,-1008.87 517.65,-978.16"/>
<polygon fill="black" stroke="black" points="518.58,-981.54 526.89,-974.97 516.3,-974.93 518.58,-981.54"/>
</g>
<!-- PSU12&#45;&gt;B8 -->
<g id="edge40" class="edge">
<title>PSU12-&gt;B8</title>
<path fill="none" stroke="black" d="M67.27,-554.09C67.04,-626.71 77.38,-895.93 240.81,-949.02 341.3,-981.66 464.39,-937.15 529.66,-907.23"/>
<polygon fill="black" stroke="black" points="531.06,-910.43 538.64,-903.02 528.09,-904.09 531.06,-910.43"/>
</g>
<!-- PSU12&#45;&gt;D1 -->
<g id="edge65" class="edge">
<title>PSU12-&gt;D1</title>
<path fill="none" stroke="black" stroke-dasharray="5,2" d="M128.4,-543.11C175.26,-548.58 238.57,-555.97 278.37,-560.61"/>
<polygon fill="black" stroke="black" points="277.84,-564.07 288.18,-561.76 278.65,-557.12 277.84,-564.07"/>
</g>
<!-- PSU12&#45;&gt;D2 -->
<g id="edge66" class="edge">
<title>PSU12-&gt;D2</title>
<path fill="none" stroke="black" stroke-dasharray="5,2" d="M86.8,-553.58C117.66,-581.25 180.94,-635.7 240.81,-673.02 253.01,-680.63 267.07,-687.75 279.71,-693.61"/>
<polygon fill="black" stroke="black" points="278,-696.68 288.55,-697.6 280.88,-690.3 278,-696.68"/>
</g>
<!-- PSU12&#45;&gt;D3 -->
<g id="edge67" class="edge">
<title>PSU12-&gt;D3</title>
<path fill="none" stroke="black" stroke-dasharray="5,2" d="M123.69,-526.32C171.09,-518.11 237.67,-506.6 278.79,-499.48"/>
<polygon fill="black" stroke="black" points="279.18,-502.96 288.44,-497.81 277.99,-496.07 279.18,-502.96"/>
</g>
<!-- PSU12&#45;&gt;D4 -->
<g id="edge68" class="edge">
<title>PSU12-&gt;D4</title>
<path fill="none" stroke="black" stroke-dasharray="5,2" d="M84.51,-518.44C114.1,-488.34 178.13,-426.21 240.81,-385.02 252.82,-377.12 266.84,-369.94 279.5,-364.1"/>
<polygon fill="black" stroke="black" points="280.66,-367.42 288.37,-360.15 277.81,-361.02 280.66,-367.42"/>
</g>
<!-- PSU12&#45;&gt;D5 -->
<g id="edge69" class="edge">
<title>PSU12-&gt;D5</title>
<path fill="none" stroke="black" stroke-dasharray="5,2" d="M101.64,-520.27C148.24,-498.71 231.55,-460.16 279.48,-437.98"/>
<polygon fill="black" stroke="black" points="280.74,-441.26 288.34,-433.88 277.8,-434.9 280.74,-441.26"/>
</g>
<!-- PSU12&#45;&gt;D6 -->
<g id="edge70" class="edge">
<title>PSU12-&gt;D6</title>
<path fill="none" stroke="black" stroke-dasharray="5,2" d="M104.25,-551.27C123.56,-559.28 147.65,-569.23 169.21,-578.02 206.73,-593.31 249.76,-610.55 279.5,-622.43"/>
<polygon fill="black" stroke="black" points="277.84,-625.53 288.42,-625.99 280.43,-619.03 277.84,-625.53"/>
</g>
<!-- PSU12&#45;&gt;D7 -->
<g id="edge71" class="edge">
<title>PSU12-&gt;D7</title>
<path fill="none" stroke="black" stroke-dasharray="5,2" d="M73.71,-554.18C91.34,-603.87 147.14,-743.3 240.81,-817.02 252.28,-826.05 266.4,-833.56 279.3,-839.33"/>
<polygon fill="black" stroke="black" points="277.79,-842.49 288.37,-843.18 280.53,-836.05 277.79,-842.49"/>
</g>
<!-- PSU12&#45;&gt;D8 -->
<g id="edge72" class="edge">
<title>PSU12-&gt;D8</title>
<path fill="none" stroke="black" stroke-dasharray="5,2" d="M78.33,-554.19C102.58,-593.89 165.42,-689.24 240.81,-745.02 252.46,-753.64 266.5,-761.02 279.29,-766.81"/>
<polygon fill="black" stroke="black" points="277.7,-769.94 288.27,-770.7 280.48,-763.51 277.7,-769.94"/>
</g>
</g>
</svg>